<svg xmlns="http://www.w3.org/2000/svg"
 xmlns:xlink="http://www.w3.org/1999/xlink"
 width="27px" height="25px"  viewBox="0 0 27 25">
<path fill-rule="evenodd"  fill="#ffffff"
 d="M2.850586,3.793335 C2.850586,3.793335 5.2894287,3.793335 5.2894287,3.793335 C5.2894287,3.793335 8.763245,17.035034 8.763245,17.035034 C8.862427,17.423584 9.202698,17.692627 9.585632,17.692627 C9.585632,17.692627 20.262268,17.692627 20.262268,17.692627 C20.602661,17.692627 20.90039,17.483398 21.042114,17.154663 C21.042114,17.154663 24.927185,7.7388916 24.927185,7.7388916 C25.040588,7.454712 25.012268,7.140991 24.856201,6.886963 C24.700317,6.6330566 24.430908,6.4835205 24.147278,6.4835205 C24.147278,6.4835205 12.350525,6.4835205 12.350525,6.4835205 C11.882568,6.4835205 11.499756,6.886963 11.499756,7.380371 C11.499756,7.873413 11.882568,8.276978 12.350525,8.276978 C12.350525,8.276978 22.842957,8.276978 22.842957,8.276978 C22.842957,8.276978 19.695251,15.899048 19.695251,15.899048 C19.695251,15.899048 10.223633,15.899048 10.223633,15.899048 C10.223633,15.899048 6.749878,2.6573486 6.749878,2.6573486 C6.6505737,2.2687988 6.3103027,1.9997559 5.92749,1.9997559 C5.92749,1.9997559 2.850586,1.9997559 2.850586,1.9997559 C2.3826904,1.9997559 1.9998779,2.4034424 1.9998779,2.8964844 C1.9998779,3.3896484 2.3826904,3.793335 2.850586,3.793335 ZM8.777405,23.999878 C9.84082,23.999878 10.705688,23.088135 10.705688,21.967041 C10.705688,20.846436 9.84082,19.934448 8.777405,19.934448 C7.713928,19.934448 6.84906,20.84607 6.84906,21.967041 C6.84906,23.088135 7.713928,23.999878 8.777405,23.999878 ZM20.829529,23.999878 C20.87207,23.999878 20.92871,23.999878 20.971252,23.999878 C21.48175,23.955078 21.949646,23.715942 22.289917,23.297485 C22.630249,22.893799 22.786194,22.370728 22.757874,21.817749 C22.68689,20.711792 21.76538,19.859863 20.701904,19.934448 C19.638489,20.009277 18.844482,20.995605 18.915344,22.101685 C18.986267,23.162842 19.822815,23.999878 20.829529,23.999878 Z"/>
</svg>