<svg xmlns="http://www.w3.org/2000/svg"
 xmlns:xlink="http://www.w3.org/1999/xlink"
 width="19px" height="18px"  viewBox="0 0 19 18">
<path fill-rule="evenodd"  fill="#ffffff"
 d="M9.999878,16.999878 C9.849304,16.999878 9.705505,16.936646 9.603088,16.826172 C9.603088,16.826172 3.208374,9.9104 3.208374,9.9104 C3.206787,9.908691 3.2050781,9.906738 3.2035522,9.904785 C2.427246,9.042725 1.9998169,7.8999023 1.9998169,6.6870117 C1.9998169,5.474121 2.427246,4.331299 3.2035522,3.468872 C3.2035522,3.468872 3.3007202,3.3608398 3.3007202,3.3608398 C4.0908203,2.4832764 5.145813,1.9998779 6.27124,1.9998779 C7.3967285,1.9998779 8.451782,2.4832764 9.241943,3.3608398 C9.241943,3.3608398 9.999878,4.203125 9.999878,4.203125 C9.999878,4.203125 10.757874,3.3608398 10.757874,3.3608398 C11.547974,2.4832764 12.602966,1.9998779 13.728455,1.9998779 C14.854004,1.9998779 15.908936,2.4832764 16.699097,3.361206 C16.699097,3.361206 16.796143,3.468872 16.796143,3.468872 C17.572449,4.331299 18.0,5.474121 18.0,6.6870117 C18.0,7.8999023 17.572449,9.042725 16.796265,9.905151 C16.794617,9.906738 16.79303,9.908691 16.791382,9.9104 C16.791382,9.9104 10.3967285,16.826172 10.3967285,16.826172 C10.294312,16.936646 10.150452,16.999878 9.999878,16.999878 ZM4.0046387,9.174438 C4.0046387,9.174438 9.999878,15.658081 9.999878,15.658081 C9.999878,15.658081 15.995178,9.174438 15.995178,9.174438 C17.22876,7.8010254 17.227905,5.569336 15.992859,4.1968994 C15.992859,4.1968994 15.895874,4.0892334 15.895874,4.0892334 C15.313477,3.4420166 14.543762,3.0861816 13.728455,3.0861816 C12.913208,3.0861816 12.143494,3.4420166 11.561279,4.0891113 C11.561279,4.0891113 10.401611,5.3773193 10.401611,5.3773193 C10.29895,5.491211 10.153076,5.5565186 9.999878,5.5565186 C9.846802,5.5565186 9.700928,5.491211 9.598206,5.3773193 C9.598206,5.3773193 8.43866,4.0891113 8.43866,4.0891113 C7.8563232,3.4420166 7.086731,3.0861816 6.2713013,3.0861816 C5.4559937,3.0861816 4.6862793,3.4420166 4.104065,4.0891113 C4.104065,4.0891113 4.006897,4.1968994 4.006897,4.1968994 C2.7717896,5.569336 2.7710571,7.8010254 4.0046387,9.174438 Z"/>
</svg>