<svg xmlns="http://www.w3.org/2000/svg"
 xmlns:xlink="http://www.w3.org/1999/xlink"
 width="26px" height="15px"  viewBox="0 0 26 15">
<path fill-rule="evenodd"  fill="#ffffff"
 d="M23.701477,9.178711 C23.324585,8.787598 22.714417,8.787842 22.33783,9.178711 C22.33783,9.178711 20.985596,10.582153 20.985596,10.582153 C20.985596,10.582153 20.985596,3.0008545 20.985596,3.0008545 C20.985596,2.4482422 20.553955,1.9998779 20.021362,1.9998779 C20.021362,1.9998779 10.582031,1.9998779 10.582031,1.9998779 C10.0494995,1.9998779 9.617798,2.4482422 9.617798,3.0008545 C9.617798,3.5535889 10.0494995,4.001709 10.582031,4.001709 C10.582031,4.001709 19.05719,4.001709 19.05719,4.001709 C19.05719,4.001709 19.05719,10.582153 19.05719,10.582153 C19.05719,10.582153 17.704956,9.178345 17.704956,9.178345 C17.32837,8.787231 16.718079,8.787231 16.341492,9.178101 C15.964783,9.569336 15.9646,10.202148 16.341309,10.593628 C16.341309,10.593628 19.339172,13.705566 19.339172,13.705566 C19.520447,13.893555 19.765442,13.998901 20.021362,13.998901 C20.277466,13.998901 20.522278,13.892944 20.703491,13.705566 C20.703491,13.705566 23.70166,10.593628 23.70166,10.593628 C24.078186,10.203003 24.078186,9.569336 23.701477,9.178711 ZM15.400879,11.998047 C15.400879,11.998047 6.9259644,11.998047 6.9259644,11.998047 C6.9259644,11.998047 6.9259644,5.4176025 6.9259644,5.4176025 C6.9259644,5.4176025 8.278198,6.821045 8.278198,6.821045 C8.466553,7.0164795 8.713257,7.11438 8.960144,7.11438 C9.207214,7.11438 9.453735,7.0164795 9.64209,6.821045 C10.018738,6.430176 10.018738,5.796631 9.642334,5.4057617 C9.642334,5.4057617 6.6434937,2.293457 6.6434937,2.293457 C6.4624634,2.1055908 6.2174683,2.000122 5.961487,2.000122 C5.7054443,2.000122 5.460327,2.1055908 5.279358,2.293457 C5.279358,2.293457 2.2814941,5.4057617 2.2814941,5.4057617 C1.9049683,5.796631 1.9049683,6.4300537 2.2816772,6.821045 C2.6585693,7.212036 3.2684326,7.211914 3.6453247,6.821045 C3.6453247,6.821045 4.9975586,5.4176025 4.9975586,5.4176025 C4.9975586,5.4176025 4.9975586,12.998779 4.9975586,12.998779 C4.9975586,13.551514 5.429138,13.999634 5.961792,13.999634 C5.961792,13.999634 15.401062,13.999634 15.401062,13.999634 C15.933716,13.999634 16.365356,13.551514 16.365356,12.998779 C16.365112,12.446167 15.933716,11.998047 15.400879,11.998047 Z"/>
</svg>